<?xml version="1.0" encoding="UTF-8" standalone="no"?>
<svg
   version="1.0"
   width="475.25482pt"
   height="553.00128pt"
   viewBox="0 0 475.25481 553.00127"
   preserveAspectRatio="xMidYMid"
   id="svg50"
   sodipodi:docname="favicon.svg"
   inkscape:version="1.2.2 (732a01da63, 2022-12-09)"
   xmlns:inkscape="http://www.inkscape.org/namespaces/inkscape"
   xmlns:sodipodi="http://sodipodi.sourceforge.net/DTD/sodipodi-0.dtd"
   xmlns="http://www.w3.org/2000/svg"
   xmlns:svg="http://www.w3.org/2000/svg">
  <defs
     id="defs54" />
  <sodipodi:namedview
     id="namedview52"
     pagecolor="#ffffff"
     bordercolor="#000000"
     borderopacity="0.25"
     inkscape:showpageshadow="2"
     inkscape:pageopacity="0.0"
     inkscape:pagecheckerboard="0"
     inkscape:deskcolor="#d1d1d1"
     inkscape:document-units="pt"
     showgrid="false"
     inkscape:zoom="0.65240834"
     inkscape:cx="955.68981"
     inkscape:cy="312.6876"
     inkscape:window-width="2560"
     inkscape:window-height="1369"
     inkscape:window-x="3832"
     inkscape:window-y="330"
     inkscape:window-maximized="1"
     inkscape:current-layer="g48" />
  <g
     transform="matrix(0.1,0,0,-0.1,130.44898,735.45461)"
     fill="#000000"
     stroke="none"
     id="g48">
    <g
       id="g136"
       transform="rotate(-33.579062,1085.2374,4898.4841)">
      <path
         d="m 1550,7969 c -226,-34 -406,-85 -491,-140 -93,-59 -148,-161 -130,-241 11,-48 57,-99 112,-123 33,-15 39,-23 39,-49 0,-42 -84,-509 -121,-676 -35,-160 -83,-330 -138,-495 -45,-135 -76,-267 -86,-367 -6,-55 -4,-73 9,-93 29,-44 76,-27 76,27 0,35 55,233 120,433 107,328 181,679 230,1086 l 12,96 177,6 c 205,7 318,20 417,47 94,27 94,27 88,-17 -26,-185 -163,-776 -258,-1111 -19,-67 -33,-129 -29,-138 10,-27 42,-37 68,-20 37,25 136,350 219,721 43,194 96,521 96,592 0,28 8,43 39,73 44,43 53,77 35,147 -19,74 -111,144 -149,113 -22,-18 -18,-48 10,-82 l 26,-31 -21,-19 c -11,-11 -20,-31 -20,-48 0,-22 -7,-33 -28,-44 -44,-23 -178,-54 -277,-65 -123,-14 -350,-25 -367,-18 -12,4 -13,21 -6,88 9,90 2,109 -38,109 -29,0 -39,-21 -49,-103 -8,-65 -15,-73 -45,-55 -52,32 -28,108 49,158 97,61 386,126 621,139 118,6 125,7 136,30 42,84 -71,109 -326,70 z"
         id="path4" />
      <path
         d="m 1682,6138 c -24,-24 -10,-104 64,-360 42,-145 101,-348 130,-453 73,-255 79,-274 135,-394 27,-57 48,-105 47,-105 -2,-1 -16,-8 -33,-17 l -30,-15 5,-110 c 11,-244 3,-680 -18,-944 -31,-383 -56,-1039 -49,-1265 3,-104 13,-226 21,-270 41,-219 47,-232 89,-221 l 24,6 6,357 c 3,197 11,471 17,608 48,1155 52,1608 14,1811 -5,26 -2,32 15,37 28,7 27,38 -3,124 -13,37 -54,172 -91,298 -92,316 -211,714 -242,809 -33,102 -68,137 -101,104 z"
         id="path8" />
      <path
         d="M 455,5476 C 192,5211 135,5137 136,5066 c 2,-43 40,-91 65,-81 9,3 33,29 54,58 21,29 82,97 134,152 317,332 403,442 385,495 -7,19 -17,26 -43,28 -32,3 -46,-9 -276,-242 z"
         id="path10" />
      <path
         d="m 153,4933 c -14,-34 -15,-78 -3,-456 13,-427 10,-884 -11,-1307 -10,-211 0,-662 16,-702 11,-27 63,-24 74,5 7,20 30,653 47,1282 5,217 -18,1051 -32,1135 -14,84 -64,107 -91,43 z"
         id="path18" />
      <path
         d="m 1475,4790 c -60,-4 -162,-19 -225,-33 -63,-15 -144,-31 -178,-36 -35,-6 -70,-15 -78,-22 -18,-15 -18,-63 1,-79 25,-21 151,-13 295,20 187,42 342,80 360,90 38,19 9,71 -38,68 -15,-1 -76,-4 -137,-8 z"
         id="path22" />
      <path
         d="m 1661,4716 c -9,-10 -8,-43 1,-132 15,-151 15,-695 0,-834 -7,-58 -18,-183 -24,-279 -12,-166 -11,-174 7,-187 23,-17 27,-17 48,-1 23,16 71,274 86,456 22,272 10,801 -21,919 -16,61 -68,93 -97,58 z"
         id="path24" />
      <path
         d="m 797,4703 c -11,-14 -16,-50 -20,-148 -3,-71 -10,-168 -16,-215 -26,-210 -43,-946 -25,-1054 5,-27 16,-53 25,-59 24,-15 66,-1 73,25 9,34 34,552 43,898 10,370 5,547 -17,560 -23,15 -45,12 -63,-7 z"
         id="path26" />
      <path
         d="m 1385,4358 c -26,-15 -66,-19 -223,-21 -116,-2 -135,-4 -143,-20 -26,-46 26,-80 87,-58 19,7 38,10 42,7 5,-3 43,-6 86,-7 42,-2 79,-7 82,-11 10,-16 60,-7 109,20 40,21 51,33 53,56 2,16 -2,32 -10,37 -18,12 -59,10 -83,-3 z"
         id="path28" />
      <path
         d="m 1026,3997 c -31,-23 -14,-65 29,-73 19,-3 46,-3 60,0 21,5 27,1 39,-28 30,-73 105,-78 181,-13 32,28 37,37 31,60 -8,34 -46,36 -94,7 l -33,-20 -25,29 c -20,24 -34,30 -77,34 -28,2 -61,7 -72,11 -12,4 -28,1 -39,-7 z"
         id="path32" />
      <path
         d="m 1405,3581 c -58,-38 -77,-58 -73,-77 3,-16 13,-20 60,-22 54,-3 58,-2 72,27 21,40 20,68 -3,81 -25,13 -21,13 -56,-9 z"
         id="path36" />
      <path
         d="m 1034,3515 c -8,-19 3,-35 26,-35 22,0 33,23 17,39 -15,15 -37,14 -43,-4 z"
         id="path38" />
      <path
         d="m 1225,3233 c -22,-8 -74,-18 -115,-23 -95,-11 -221,-44 -255,-66 -26,-17 -41,-54 -32,-78 3,-8 17,-22 31,-32 25,-16 31,-15 143,20 64,20 150,52 192,70 42,19 86,37 98,41 31,9 42,54 18,72 -22,15 -28,15 -80,-4 z"
         id="path40" />
      <path
         d="m 46,2231 c -25,-27 -17,-79 14,-102 14,-10 89,-32 170,-49 80,-17 226,-53 325,-80 484,-133 865,-190 1274,-190 141,0 172,3 185,16 43,43 1,84 -87,84 -122,0 -252,19 -707,104 -286,53 -347,66 -655,146 -353,91 -485,109 -519,71 z"
         id="path44" />
    </g>
  </g>
</svg>
