<?xml version="1.0" standalone="no"?>
<!DOCTYPE svg PUBLIC "-//W3C//DTD SVG 20010904//EN"
 "http://www.w3.org/TR/2001/REC-SVG-20010904/DTD/svg10.dtd">
<svg version="1.0" xmlns="http://www.w3.org/2000/svg"
 width="2782.000000pt" height="832.000000pt" viewBox="0 0 2782.000000 832.000000"
 preserveAspectRatio="xMidYMid meet">

<g transform="translate(0.000000,832.000000) scale(0.100000,-0.100000)"
fill="#000000" stroke="none">
<path d="M9124 8245 c-175 -185 -425 -619 -765 -1330 -71 -148 -169 -344 -218
-435 -49 -91 -117 -221 -151 -290 -106 -213 -269 -518 -350 -655 -193 -327
-456 -751 -662 -1065 -52 -80 -102 -159 -111 -177 -9 -17 -44 -67 -77 -112
-76 -100 -98 -157 -77 -198 18 -34 45 -58 75 -68 31 -9 106 28 120 60 52 114
333 369 629 570 126 86 418 303 678 505 268 208 297 229 380 270 85 41 164 65
255 75 45 5 61 2 87 -14 73 -45 98 -172 58 -291 -37 -113 -79 -183 -317 -531
-117 -170 -208 -352 -239 -478 -11 -40 -19 -80 -19 -87 0 -22 38 -54 63 -54
26 0 67 38 67 61 0 19 62 111 124 184 29 33 67 80 86 105 19 25 61 74 94 110
78 86 264 367 320 482 83 171 104 314 67 456 -32 124 -100 210 -206 262 -71
35 -215 34 -330 -2 -202 -64 -309 -129 -612 -368 -323 -254 -748 -568 -758
-559 -2 2 56 99 129 214 353 561 412 664 697 1215 219 424 261 506 472 940
231 473 424 824 584 1058 71 104 80 145 41 182 -39 36 -76 27 -134 -35z"/>
<path d="M1550 7969 c-226 -34 -406 -85 -491 -140 -93 -59 -148 -161 -130
-241 11 -48 57 -99 112 -123 33 -15 39 -23 39 -49 0 -42 -84 -509 -121 -676
-35 -160 -83 -330 -138 -495 -45 -135 -76 -267 -86 -367 -6 -55 -4 -73 9 -93
29 -44 76 -27 76 27 0 35 55 233 120 433 107 328 181 679 230 1086 l12 96 177
6 c205 7 318 20 417 47 94 27 94 27 88 -17 -26 -185 -163 -776 -258 -1111 -19
-67 -33 -129 -29 -138 10 -27 42 -37 68 -20 37 25 136 350 219 721 43 194 96
521 96 592 0 28 8 43 39 73 44 43 53 77 35 147 -19 74 -111 144 -149 113 -22
-18 -18 -48 10 -82 l26 -31 -21 -19 c-11 -11 -20 -31 -20 -48 0 -22 -7 -33
-28 -44 -44 -23 -178 -54 -277 -65 -123 -14 -350 -25 -367 -18 -12 4 -13 21
-6 88 9 90 2 109 -38 109 -29 0 -39 -21 -49 -103 -8 -65 -15 -73 -45 -55 -52
32 -28 108 49 158 97 61 386 126 621 139 118 6 125 7 136 30 42 84 -71 109
-326 70z"/>
<path d="M6550 6153 c-38 -4 -237 -30 -473 -62 -222 -30 -422 -90 -612 -182
-216 -106 -325 -290 -285 -484 7 -37 60 -161 137 -323 l126 -263 5 -93 c5
-110 -15 -221 -57 -307 -72 -146 -262 -352 -401 -433 -121 -72 -436 -211 -570
-252 -315 -98 -475 -144 -575 -168 -109 -27 -135 -41 -135 -77 0 -22 26 -49
48 -49 9 0 53 7 97 15 44 8 152 26 240 40 284 46 467 101 721 217 255 116 363
186 485 316 83 87 201 252 233 324 34 76 66 234 66 320 0 133 -21 194 -155
473 -114 238 -125 265 -127 320 -2 106 63 204 174 261 151 77 399 158 552 179
61 9 215 32 341 52 215 33 240 35 395 30 91 -3 184 -11 208 -17 49 -12 77 -2
87 30 23 73 -70 112 -296 125 -57 3 -124 7 -149 9 -25 1 -61 1 -80 -1z"/>
<path d="M1682 6138 c-24 -24 -10 -104 64 -360 42 -145 101 -348 130 -453 73
-255 79 -274 135 -394 27 -57 48 -105 47 -105 -2 -1 -16 -8 -33 -17 l-30 -15
5 -110 c11 -244 3 -680 -18 -944 -31 -383 -56 -1039 -49 -1265 3 -104 13 -226
21 -270 41 -219 47 -232 89 -221 l24 6 6 357 c3 197 11 471 17 608 48 1155 52
1608 14 1811 -5 26 -2 32 15 37 28 7 27 38 -3 124 -13 37 -54 172 -91 298 -92
316 -211 714 -242 809 -33 102 -68 137 -101 104z"/>
<path d="M455 5476 c-263 -265 -320 -339 -319 -410 2 -43 40 -91 65 -81 9 3
33 29 54 58 21 29 82 97 134 152 317 332 403 442 385 495 -7 19 -17 26 -43 28
-32 3 -46 -9 -276 -242z"/>
<path d="M11150 5439 c-72 -12 -273 -81 -358 -123 -197 -97 -515 -360 -632
-524 -133 -186 -204 -359 -205 -497 0 -143 44 -227 148 -279 51 -26 69 -29
145 -29 75 0 104 6 207 41 301 101 714 312 940 479 48 35 89 62 91 60 3 -3 -6
-45 -20 -93 -54 -198 -56 -224 -21 -360 27 -104 47 -134 90 -134 38 0 58 33
56 94 -1 55 10 92 153 484 67 184 74 249 30 302 -52 61 -108 74 -181 41 -38
-18 -169 -114 -311 -228 -217 -176 -807 -460 -993 -480 -85 -9 -106 0 -120 47
-45 150 158 473 436 691 192 151 298 210 476 267 126 40 179 46 254 31 102
-20 155 9 155 84 0 51 -13 73 -58 96 -75 38 -170 48 -282 30z"/>
<path d="M24774 5301 c-40 -25 -76 -72 -107 -141 -13 -30 -68 -149 -122 -265
-96 -205 -212 -467 -401 -907 -85 -199 -101 -227 -190 -350 -239 -326 -458
-584 -683 -807 -173 -170 -231 -218 -456 -377 -199 -141 -292 -199 -510 -321
-444 -249 -475 -263 -580 -270 -60 -3 -76 -1 -109 19 -59 35 -79 78 -72 160
12 133 71 235 222 378 153 145 189 171 399 290 61 34 146 83 190 110 58 35
110 57 190 79 168 46 235 52 449 45 206 -7 233 -3 261 40 24 36 11 60 -48 94
-79 44 -152 61 -303 70 -143 9 -250 0 -402 -32 -92 -20 -262 -86 -326 -126
-26 -17 -89 -51 -139 -76 -155 -78 -247 -139 -373 -248 -122 -105 -230 -227
-285 -323 -41 -72 -67 -151 -80 -249 -27 -204 56 -368 227 -445 168 -76 337
-47 614 105 63 35 185 101 270 146 222 119 341 191 545 330 215 146 320 230
478 379 65 61 120 111 122 111 2 0 -10 -30 -26 -67 -29 -64 -65 -155 -271
-688 -45 -115 -97 -243 -115 -284 -42 -93 -42 -123 -3 -163 26 -26 36 -30 66
-25 48 8 63 22 92 87 57 129 315 637 397 780 115 203 481 938 574 1155 60 138
96 205 194 355 156 238 256 433 373 726 160 401 201 575 154 652 -42 69 -147
95 -216 53z"/>
<path d="M13024 4968 c-23 -10 -42 -50 -125 -248 -28 -69 -76 -170 -105 -225
-139 -262 -363 -728 -369 -769 -12 -81 25 -153 94 -182 98 -41 147 -10 426
270 258 260 327 312 550 421 221 107 441 188 730 267 93 25 122 29 187 25 74
-5 83 -8 180 -67 57 -33 134 -70 171 -82 54 -16 68 -24 64 -37 -3 -9 -28 -70
-55 -137 -78 -188 -106 -312 -106 -469 0 -100 4 -143 18 -185 52 -153 155
-260 341 -352 126 -62 181 -78 310 -86 116 -7 516 2 583 14 68 11 94 73 49
118 -22 22 -32 23 -218 29 -221 6 -320 22 -459 74 -351 130 -418 294 -288 703
32 99 85 228 103 248 1 2 79 16 171 31 186 31 294 67 374 126 95 70 136 209
80 270 -34 38 -79 55 -169 65 -92 10 -169 -4 -300 -54 -103 -40 -154 -70 -234
-138 l-57 -50 -104 21 c-57 11 -157 34 -222 50 -162 40 -280 55 -372 47 -336
-29 -505 -68 -804 -187 -261 -104 -393 -180 -529 -306 -32 -30 -59 -51 -59
-45 0 5 17 47 39 93 110 239 186 449 210 583 17 93 14 114 -18 147 -31 30 -52
35 -87 17z"/>
<path d="M153 4933 c-14 -34 -15 -78 -3 -456 13 -427 10 -884 -11 -1307 -10
-211 0 -662 16 -702 11 -27 63 -24 74 5 7 20 30 653 47 1282 5 217 -18 1051
-32 1135 -14 84 -64 107 -91 43z"/>
<path d="M26232 4908 c-32 -16 -52 -53 -125 -238 -36 -91 -89 -214 -117 -275
-154 -326 -204 -439 -325 -740 -73 -181 -170 -429 -215 -550 -195 -522 -449
-1142 -588 -1435 l-59 -125 -114 -91 c-348 -277 -516 -479 -527 -637 -4 -50
-1 -63 23 -98 50 -76 146 -98 240 -53 86 40 236 208 370 414 l49 75 7 -60 c11
-109 49 -188 123 -252 68 -60 237 -95 419 -87 142 6 167 19 167 85 0 55 -42
89 -109 89 -16 0 -50 9 -77 19 -27 11 -75 27 -107 36 -72 20 -134 72 -143 120
-15 83 63 205 239 371 162 152 293 250 398 298 180 81 258 152 259 236 0 37
-33 84 -73 103 -94 45 -211 1 -421 -158 -100 -76 -158 -111 -255 -156 -69 -31
-128 -56 -129 -54 -2 2 25 72 61 157 98 229 296 729 403 1018 53 140 133 354
178 475 46 121 103 272 126 335 23 63 82 203 130 310 155 341 200 450 247 589
24 74 51 148 60 164 38 75 -38 151 -115 115z"/>
<path d="M1475 4790 c-60 -4 -162 -19 -225 -33 -63 -15 -144 -31 -178 -36 -35
-6 -70 -15 -78 -22 -18 -15 -18 -63 1 -79 25 -21 151 -13 295 20 187 42 342
80 360 90 38 19 9 71 -38 68 -15 -1 -76 -4 -137 -8z"/>
<path d="M1661 4716 c-9 -10 -8 -43 1 -132 15 -151 15 -695 0 -834 -7 -58 -18
-183 -24 -279 -12 -166 -11 -174 7 -187 23 -17 27 -17 48 -1 23 16 71 274 86
456 22 272 10 801 -21 919 -16 61 -68 93 -97 58z"/>
<path d="M797 4703 c-11 -14 -16 -50 -20 -148 -3 -71 -10 -168 -16 -215 -26
-210 -43 -946 -25 -1054 5 -27 16 -53 25 -59 24 -15 66 -1 73 25 9 34 34 552
43 898 10 370 5 547 -17 560 -23 15 -45 12 -63 -7z"/>
<path d="M1385 4358 c-26 -15 -66 -19 -223 -21 -116 -2 -135 -4 -143 -20 -26
-46 26 -80 87 -58 19 7 38 10 42 7 5 -3 43 -6 86 -7 42 -2 79 -7 82 -11 10
-16 60 -7 109 20 40 21 51 33 53 56 2 16 -2 32 -10 37 -18 12 -59 10 -83 -3z"/>
<path d="M17957 4330 c-36 -28 -84 -152 -102 -261 -15 -96 -58 -333 -100 -564
-14 -71 -27 -157 -31 -190 -3 -33 -12 -89 -19 -125 -21 -102 -27 -186 -16
-228 12 -42 61 -95 104 -111 88 -33 167 0 352 148 50 39 164 122 255 183 91
61 215 146 275 189 61 42 169 113 240 157 72 43 175 108 230 143 104 66 359
195 480 244 77 31 105 55 105 91 0 30 -33 64 -63 64 -30 0 -396 -132 -567
-204 -178 -76 -294 -137 -535 -286 -246 -151 -408 -258 -545 -362 l-105 -79
-3 59 c-7 149 97 885 143 1006 28 74 26 108 -8 131 -29 21 -60 19 -90 -5z"/>
<path d="M1026 3997 c-31 -23 -14 -65 29 -73 19 -3 46 -3 60 0 21 5 27 1 39
-28 30 -73 105 -78 181 -13 32 28 37 37 31 60 -8 34 -46 36 -94 7 l-33 -20
-25 29 c-20 24 -34 30 -77 34 -28 2 -61 7 -72 11 -12 4 -28 1 -39 -7z"/>
<path d="M20420 3626 c-47 -8 -119 -26 -160 -41 -81 -29 -299 -136 -395 -193
-307 -183 -618 -544 -664 -770 -36 -173 15 -340 131 -435 55 -44 105 -69 198
-98 67 -21 93 -24 245 -23 167 0 173 1 330 43 183 48 270 81 515 195 390 180
583 335 695 556 23 46 29 72 33 151 9 188 -54 328 -187 419 -100 68 -239 96
-373 76 l-57 -8 -21 45 c-18 37 -30 49 -73 67 -66 29 -111 32 -217 16z m50
-230 c0 -3 -45 -31 -100 -63 -172 -99 -190 -112 -201 -140 -23 -60 33 -143 96
-143 11 0 59 22 107 49 97 54 229 113 298 132 56 16 221 16 276 0 80 -22 127
-82 140 -179 6 -44 3 -60 -21 -109 -36 -74 -151 -188 -267 -266 -94 -63 -428
-229 -548 -271 -315 -113 -566 -134 -717 -60 -74 36 -98 78 -97 169 0 62 5 79
42 150 78 150 254 342 417 456 117 82 312 186 439 235 104 41 136 50 136 40z"/>
<path d="M1405 3581 c-58 -38 -77 -58 -73 -77 3 -16 13 -20 60 -22 54 -3 58
-2 72 27 21 40 20 68 -3 81 -25 13 -21 13 -56 -9z"/>
<path d="M1034 3515 c-8 -19 3 -35 26 -35 22 0 33 23 17 39 -15 15 -37 14 -43
-4z"/>
<path d="M1225 3233 c-22 -8 -74 -18 -115 -23 -95 -11 -221 -44 -255 -66 -26
-17 -41 -54 -32 -78 3 -8 17 -22 31 -32 25 -16 31 -15 143 20 64 20 150 52
192 70 42 19 86 37 98 41 31 9 42 54 18 72 -22 15 -28 15 -80 -4z"/>
<path d="M16627 2824 c-50 -27 -56 -75 -14 -121 50 -56 155 6 132 77 -7 21
-60 60 -80 60 -5 -1 -23 -8 -38 -16z"/>
<path d="M46 2231 c-25 -27 -17 -79 14 -102 14 -10 89 -32 170 -49 80 -17 226
-53 325 -80 484 -133 865 -190 1274 -190 141 0 172 3 185 16 43 43 1 84 -87
84 -122 0 -252 19 -707 104 -286 53 -347 66 -655 146 -353 91 -485 109 -519
71z"/>
<path d="M27050 2025 c-109 -16 -137 -24 -240 -71 -116 -52 -249 -135 -332
-206 -125 -108 -254 -305 -289 -441 -19 -79 -8 -204 26 -272 58 -119 204 -231
351 -269 195 -50 538 38 793 204 35 22 65 40 66 38 2 -2 -1 -37 -6 -78 -5 -41
-14 -134 -20 -207 -10 -121 -10 -140 10 -237 41 -202 103 -354 180 -438 50
-56 135 -42 168 28 15 30 15 40 4 77 -7 23 -24 82 -37 132 -53 192 -40 475 38
860 36 182 39 205 28 252 -19 87 -102 145 -182 128 -57 -12 -80 -30 -214 -163
-101 -100 -154 -143 -225 -185 -115 -68 -222 -112 -337 -137 -140 -31 -206
-24 -294 32 -119 75 -117 181 6 352 113 157 324 301 523 358 65 19 104 22 229
23 148 0 151 0 190 -27 63 -44 119 -35 149 22 24 46 19 76 -22 122 -90 98
-315 140 -563 103z"/>
</g>
</svg>
